<?xml version="1.0" encoding="utf-8"?>
<svg viewBox="1072 158 1947 1040" style="shape-rendering: geometricprecision;" xmlns="http://www.w3.org/2000/svg" xmlns:xlink="http://www.w3.org/1999/xlink">
  <path transform="matrix(0.9999999999999999, 0, 0, 0.9999999999999999, 1071.2900390624998, 158.47000122070312)" style="fill: none; stroke: rgb(103, 124, 160); stroke-width: 4px;" d="M288.79,404.4l2,1.51,3.54,6.66-.42,3.69,1.51,3.07,1.61-.52.61,2.12,7.14,5.53.14,1.09-1.18,2.17-3.41-.8.71,5.05,3.45,3.64,2.22.48,3.26,2.69,1.25.21,3.06,1.91,2,2.2-1.72,4.78,2.23,3.43L321,455l3.54,4,2.09.89s.06,2.9.11,2.9,2.23,3,2.23,3l1.45.08,2.79-1.52,1-3.84-4.94-6.74-2.52-.76-.88-4.26-5.24-11-5-6.35s-.76-3.49-.89-3.54S305.13,416,305.13,416l.59-3.81-1.85-3.33,2.2-.16,2.09.16,2.21.75-.19,2,1.83,4.62,3.11,4.77-1.24,1.61.81,3.44,2.52-.54,4.81,6.47,2.5.62,1.9,4.86,4.27,3.06-.32,2.52-.11,2.61,6.71,4.27,1.24,2.47,7.11,7,4.94,6.2,1.69,6.28,2.5,1.21-1.74,2.49-1.56,5.32,4.53,7.42,6.31,3.46,1.83,3.41,4.46,1.69,5.1.86,1.29,1.37,9.07,5.83,5.59.94,4.4,3,10.39,3.51,8.08-3.54,6.36,2,6.61,6.69,1,3.06,5.56,2.6,4.81.05,2.17-1.42-.32,2.07,1.66,1.9,3.2,0,2.2,1.8,4.27-.19,1.91,2,4.35,3.33.24,2.42,3.67,4.43,2.37.4-.67.56s.26,6.93.08,7.17,3.06,2,3.06,2l1.74-.83.91-.7.46,2.1,4.32,2.07.38,5.47,2.33.43,3.39,1.61s3.17,0,3.17-.08,2.49.35,2.49.35l1.35,2.55,2.44-.19.67,3.52s3.62-.48,3.38-.48,1.94-2.5,1.94-2.5l-1.1-1.66-.41-2.13,1.26,0,2.13-2,.37-1.15,1.48-1.67,3.76,1.86,1.45,1.9-.57,1.88.19,3.73,1.83,1,2.47,5.4-.84,5.21.78,5.61-1.85,3.78,2.42,4.27-2.9,5.51-3.57,1.72-2,4.72.83,2.82-6.15,2.71-.51,4.38-2.15,1.58-.27,2.1L489,616.92l1,1.64-1.88.38s-.78,3.51-.84,3.57,1.13,2.68,1.13,2.68l-.78,1.95,2.26,2.18,2.41,1,1.45-2.26,1,.7-.08,1.31-2.71,3.58-.06,1.18-4.51,2.76-2.47,1.77.81,5.72,1.42,2,.94,3-1.66,2,2.06,2.15,2.29,2.36,3.78,3.82.35,4.17,3.2,1.74,3.22,11.09,1.61,2.58,6.68,13.63,3.68,4.06,1,1.72-2.39,5.12,2.58,4.14,3.94,3.77,5.48,3.92,4.8,3.51,6.37,3.25,5,2.66.27,2.2,5.26,4.38.08,2.64.43,2,1.35,1.74-1,1.29-.73,2.93,1.86,1.58-.54,1.61.13,4.92-.37,3.49,1.61,1.1-1.26,3.92-2.13,3.73.78,2.74-1.55,2.79,1.26,2.58-.94,5-1.45,4s1,4.24,1,4.24-1.26,5-1.26,5l1.21,3.82-.59,3.35-3.28,1.75-2.49,2.74,2.68,2.14.56,4.46-2.3,4.78.8,6-.59,3,.65,4.51-1.19,4-.8,4.81-5.34,12.16,0,4.36-3.89,2.55-1.16,3.17.4,5.53,2.55,7.76L525.47,880l1.48,1.93-1.4,3.22-.19,2.88-.86,6,2.39,2.65,2.71-1.42-.16-7,2.58.08.91,1.23-.29,3.06.62,2.79-1.13,1.91-.54,4.78-1.21.81-.61,2.39-.75,0s.13-2.82.13-2.82L527.22,900l-2.2,1.53-2.66,3.15-.3,5.44-1.61,2.15-2.36,2.39s-1.43,3.55-1.43,3.57a4.19,4.19,0,0,0,.51.27l3.52.49,2.28.85-6.63,6.85.19,5.53,1.42,5-.32,2.63-1.53,3.65,2.23,2.47-.59,4.54,1.66,3.17s3.55,2,3.49,2,1.4,3.19,1.4,3.19l5,6.88L542,973.28l4.13-.51,6.42,3.33,5,.59,4.11-1.26,2.74-1.93.69-1.56,3.09,2.58,5.78-.68,2.54-5.46-5.87-.8-5.06-1.15-3.16-1.75-3.3-3.27-.33-3.64-1.13-1.54-.44-2.08,2.39.11-3.35-2.49-1.16-2.25-.61-2.9.55-3.7,1.28-1.76,3.63-1.37,2-2,3.92-8.74,4.79-1.39,1.77-2.49v-3.75l-1.21-2.35-5.52-1.43L562.58,916l.16-2.59,1.9-4.17,2.64-2.23,5.94,0,2.14-3.23.18-7.32,4-3.15,3.25-1.07,2.6-1.32-1.74-4.06-3.68,1.58-3.13-1.34-.51-5.49,1-1.57,5.37,2.39,7.07-1.23,2.72-2.7-1-1.58,1.37-7-.75-3.07,16-.87,6.47-2.5,2.12-2.4,5-7.95L622,850l-3.67-2.67.1-4.52-6.68-4.68.22-1.19,4.15,1.49,2.81-.2,3.72,2.72,5.72.27,3.73.55,3.22-1.52,3.56-3.07,1.69-4,3.88-4.12,2-6.87,7.41-5.82L661.07,803l4.26-3.52,1.42-7.66-.73-4.62.38-6.07s6.58-7.47,6.58-7.43,6.53-4.09,6.53-4.09l5.21-1.32,4.1-3,7.59-1.95,5.84-.16,2.16-4.86,4.19-2.28.26-7,6.56-8.63.28-8.09,2-3,2.06-13.17L719.33,703l2-4.52,1.32-.17,8.22-13.72,9.26-11.51,2.5-11.78-3.8-15.14-7.69-1.08-4.33-2.21-6-6.49-7.57-4.71-8.79-.21L694.79,628l-5.65,1.55-.26-3.15-3.37-4.83-11.44-3.92-4.4-1.17L667,619.38l-.7-6h-6l-2.5-3.77,1.25-3.56-.31-5.5-4.09-1.42-3-13.64-2.11.24L650,584l-2.14-4.31-5.28-3.52-11-2.88-4.78.28L625,575.66l-5-2.93.22-.93-5.6-4.84-2.43.37-.43-1.73.82-1.66-6.78-6.4-2.64-1.92-2.48.07.19-3.55-4.16-3.37-4.34-.53-.92-5.84s-2.16-1.61-6.75-1-5.7,1.23-5.7,1.23l-2.69,2.57-2.79,0-5-3.22-5.24-1.13-3.63,2.14-4.21-5.72-2.23-.84-5-4.81-2.65,1.66-.24,4.43-2.42-.29-2,3.7,1.41,6.1-1.32-.31.43-1.71-1.2-3.91,3-9.93-2.26-2.59-1.25,2.61-1-1.94L528.62,537l-3.82.1-1.39,2-2.21.24-4,3.34-.17,3.89-6.87,6.83,1.22,2-2.86.09-3.48-3.55-3.63-2.26-5.5-1.08L491,553.2,488.66,555l-3.1.12-2.82-1.25-3.53-4.42v-.92l-3.39-3.24-1.68-3.58V538.2l.91-2.24-.55-2.18,1.83-2.65-.67-8,1-2.38-.12-5.84.94-.41L472,510.21l-1.73-2.53-2.35-.72-3.2,1-2.67-.24-2.16,1.66-5-.89-4.54.6-4.4-.09,1.35-.7,2.55-4.09.29-8.39,2.14-2.64,1.85-7.3-.58-2,4-6.16,1.37-3.7-3.12-3-12.91-.14-8.17,4.21-.67,4.78-3.1,8s-2.09,1.85-2.14,1.87-5.43-1.61-5.43-1.61l-1.49,2.74-6.23,1.85s-2.54-2.07-2.59-2.07-7.26-3.36-7.26-3.36l-5.12-8.7L397,467.84l1.57-20-.63-2.51-9.33-3.82-1.69-2.81-1-4.73-5.07-5.51-1.35-4.39-5.17-4.39-5.06-.11-3.72,4.95-5.62-2.7-2.81-3.15-.23-3.71-9.11-8.33h-9l-1.8,2.82-15.53-.68-18.33-7.09-3.38-1.57-8.32.67Z" shadow="S America"/>
  <path transform="matrix(0.9999999999999999, 0, 0, 0.9999999999999999, 1071.2900390624998, 158.47000122070312)" style="stroke-width: 4px; fill: none; stroke: rgb(103, 124, 160);" d="M399.26,445.65l.91-11.87,4.09-4.47,5.23-1.87,5.44-5.48,5.36-1.42,5,1.58,4.35-1.36,3.85,3.67,9.39.27,1.66-2.74-1-4.95,9,.36L459.1,416l6.71,5.43,5.86-2.6,7.37,7.66-1.6,5.05,9.07,16.4,2.36,2.36,3.31.09,2.46-5.48.42-9.4-3.3-5,.42-2.74-5.43-13.56.71-4.68,3.54-5.81,8.22-5.24.38-2.37a26.74,26.74,0,0,1,2.41-2.22c.09.1,2.41.62,2.41.62l5.29-5.48,5.15-1.56,4.91-9.22-3-5.57,5.07-8.81.14-3.07,5.25-6.1.52-4.86,9.12-1.47,3.73-4.34,8.6.42,1.51-4.39-1.79-2.18L546,337.6l-1.32-1.94,3.82-5.72,15.61-6.38,1.94-3.78-1.28-1.46,3.5.09L574.9,317l3.12.14-8.32,5.34.48,5.81,5.53,1.23,5-4.49,3.63-3.12,6-2.31,6.27-1,5.53-2.6,2.55-2.5-2.84-3-.33-4-4.53.62-2.6,6.66-3.36-.24s1-2.36,1-2.31-1-2.46-1-2.46h-6.14l-4.87-3-2.22,1s-1.89-6-1.89-5.91,4.58-6.73,4.58-6.73L577,291.61l-7.56-1.14-6.15,3.78-5.72,2.13-5.76,5.48.14,2.6-3,3.12-3.92-1,2.26-2.51,5.49-5.95,2.78-4.87,4.21-2.5,5.43-.48,3.45-5.34,9.45-.89,8.74.47,5.91,2,10.49-1.32,7.42-6.05,9.59-2,6.9-4.53.61-7.94-4.63-2.79-2.79-1-1.7-4-3.26-3L605.22,251l-6.94-4.72-3.6-1.18,1.14-4.16-2.65-6.38-6.8-5.62-6.81-9-3.07-.57-7.18,9.5-3.4,2-4.63.28-2.74-2.13-5.2-1.75L552,223.58l-.52-7.37-1-2.74-9.27.09-2.08-2.91-3.73-2.46-7.09-3.07-4.67,1.37-15.27-3.21-4.11,2,.24,3.07.05,4.16-2.84,3.36,4.73,2.07.61,2.79-5.91,5.91,1.8,3.45,3.73,3.16,3.92,7.61-.09,4.92L507.7,250l-8.18,4-5.91.62,3.55,4.63.71,5.2,2.55,5.38-1.56,3L495,277.64l-5.43-3.55-4.23-6.42L482,262.23l-.15-4.77-1.13-5.95-13.84-.43-5.37-2.94L454.34,246l-7.14-4-6.43-3.54-7.65-.66-7,0-4.82-8.93-6.8-1.56,0-6.28,3.5-6.33,5-6.62,6.56-5.24,5.67.18.57-5.29,3.17-1.54,9.59-.57,5.62-5.05,5.67-7.33,4.35-1.09.33-2.45,9.64,2.93,1.18-2,10.39-4.92,1.94-2.64-3.35-4.73,2.83-3.47-.61-4L478,158.26l-14.84-.94.29,6.43L461,167.57l-6.33-1.46-.81,1.65,2.55,2.89-2,2.69-5.05-3s.61-5.72.56-5.72-3.16-3.87-3.16-3.87l-4.16-.33L437,163.7l-1.33-5.44-6.8-.75,2.08-2.32L425.84,148l-8.55-3.16-7.13-.29-7.26,4.54.52,7,6.71,2.74,2.08,2.7,1.84,2-.71,4-3.83-.15-2.17,3.5-1.23-3.26-5.95-2-8.13.33.14,3.78-13.94,1.84-6.76-3.49L359.9,167s-7.37-3.54-7.51-3.31-14.51,1.51-14.51,1.51l-1.7,2.84,2.17,2.22-2.74,1.7-5.2-2.93-8.88,1.7L311,170.5l-5.52-1.6,2.36-1.85-2-2.41-6.28-.94s-14.32-3.12-14.79-3.17-9.92-2.08-9.92-2.08l-8.56-2.83s-7.22-.62-7.22-.57-2.18,3.17-2.18,3.17l-3.64.94-2.31-3.87L244,159l-7.94-5.53-6.28-1.18-2.89,4-6.19-2.69-8.6,1.13-5,3.5-5.38-.33-5.06,1.23-7.23.09-4.72,3.4-4.63.14-13.38-3.92-7.32-.19-10.16-4.2L138.73,156,118,152.55l-17.39-1.37-13.53.23-10.39-5-9.5,4.4s-6.1-.85-6.1-.8-18.61,4.25-18.61,4.25l-5,5.67L21,162s-2.79,5.19-2.84,5.19,25.24,13.58,25.24,13.58l-6.71.52-1.47-2.36-11.81-.38L10.1,184.83l10.3,7s19.42,1.74,19.33,2.07,5.86-2.22,5.86-2.22l3.16,4.12L41,197.31l-2.13,2.17-7.56.1L20.87,212.1s2.84,2.74,2.84,2.79S25,217.3,25,217.3l-5.48.14-7.28,3.4,7.05,3.56L42,224.21l1.7,7.09L61,233.09l6.57-1.46.19,4.77-13,8.13-3,2.6-7.56.28-17.06,9.83,2.22,2.17L36.94,258l15.73-6.61,4.68.33,6.33-2.65,2.65-3.4,8.27-3,2.13-4L81.5,237l2.5,3.92,4.44,2.83,5.63-2,4.3-4.63-5-3.31s-1.46-4.49-1.46-4.58-4.21-3-3.36-3.41,6.53-3.63,6.53-3.63l7.65-7.89h2.79l-6.24,7.41.8,6.43,21.12-5.76.67-5.11,2.5-1,18.67,7.18,3.21-1.6,2.27-.43,19.51,5.3,11.29,6.14,17.72,1.56,2.46,6.09,6.9,3.31,2.31,7.28,7.85,4.63-.29,2.74,7.56,4.72-.23,5.25,8.22,4.2-.61,6,4.39.95,1.42,2.55,5.86,2,7.84,6.43,5.29.85.81,6.8-1.09,1.28-7.56-.95,5.39,13.85-1.52,12.65-2.5,8.74,2.17,7.46-2.27,9.36,4.64,4.54-1.28,4.89,7.89,6.76-.05,3.64,9.26,12.14-.09,5.29,1.89,2,5.39.71,1.23,1.37,2.83.33,3.17,1.93,3.4,3.22,2.05,3,12.49-.56,20,8.77,15.08.11,2.25-2.92,7.54.22,9.67,8.22,1.13,4.95,7.53,5.17,4.73-6.07,5.51.9,6.64,9.22,4.16,5.85.56,5.18,4.95,3.71Z" shadow="N America"/>
  <path style="paint-order: fill; stroke: rgb(103, 124, 160); fill: none; stroke-width: 2px; transform-origin: 1566.66px 630.19px;" d="M 1595.923 641.061 L 1596.461 637.886 L 1594.018 635.589 L 1589.034 634.368 L 1588.692 631.778 L 1582.731 630.556 L 1573.888 623.081 L 1569.295 623.765 L 1567.731 621.517 L 1562.161 619.612 L 1552.34 618.586 L 1551.558 619.416 L 1548.871 619.221 L 1544.278 621.322 L 1536.851 626.892 L 1539.246 630.068 L 1545.451 626.745 L 1549.995 623.179 L 1553.757 622.788 L 1554.979 625.964 L 1560.744 625.915 L 1561.379 627.087 L 1566.949 629.628 L 1571.542 630.312 L 1571.005 632.902 L 1573.839 635.296 L 1579.311 637.641 L 1577.992 641.794 L 1585.419 639.889 L 1587.373 640.964 L 1595.923 641.061 Z" shadow="S America"/>
  <path style="paint-order: fill; stroke: rgb(103, 124, 160); fill: none; stroke-width: 2px; transform-origin: 1600.96px 626.794px;" d="M 1599.539 628.455 L 1601.005 624.986 L 1602.373 628.602 L 1599.539 628.455 Z" shadow="S America"/>
  <path style="stroke-width: 2px; fill: none; stroke: rgb(103, 124, 160); transform-origin: 1600.88px 632.999px;" d="M 1598.378 631.465 L 1603.384 631.142 L 1603.384 634.614 L 1600.235 634.856 L 1598.378 631.465 Z" shadow="S America"/>
  <path style="fill: none; stroke: rgb(103, 124, 160); stroke-width: 2px; transform-origin: 1579.56px 653.09px;" d="M 1573.925 650.511 L 1578.832 650.112 L 1582.942 650.322 L 1585.396 652.188 L 1585.438 655.46 L 1582.502 655.376 L 1578.979 656.068 L 1573.673 653.174 L 1573.925 650.511 Z" shadow="S America"/>
  <path style="fill: none; stroke: rgb(103, 124, 160); stroke-width: 2px; transform-origin: 1611.53px 648.342px;" d="M 1593.16 650.258 L 1593.92 645.864 L 1597.158 648.375 L 1604.163 648.672 L 1603.436 646.393 L 1601.486 643.947 L 1599.207 639.85 L 1602.907 638.76 L 1610.44 641.271 L 1611.432 639.95 L 1614.736 639.817 L 1616.652 641.172 L 1619.527 640.842 L 1620.914 643.683 L 1622.798 644.047 L 1625.441 646.227 L 1628.943 646.657 L 1629.902 650.225 L 1627.721 653.001 L 1625.507 652.935 L 1624.219 652.34 L 1620.584 652.307 L 1617.28 653.298 L 1616.553 652.109 L 1614.405 653.761 L 1612.258 657.924 L 1609.251 656.04 L 1607.335 654.091 L 1603.403 653.827 L 1601.817 652.076 L 1600.396 652.208 L 1599.008 654.686 L 1596.002 652.968 L 1593.16 650.258 Z" shadow="S America"/>
  <path style="fill: none; stroke: rgb(103, 124, 160); stroke-width: 2px; transform-origin: 1637.9px 651.447px;" d="M 1638.261 648.54 L 1634.296 648.804 L 1632.512 649.862 L 1631.686 652.241 L 1633.999 653.529 L 1641.664 654.355 L 1644.043 652.373 L 1644.109 650.291 L 1641.994 648.573 L 1638.261 648.54 Z" shadow="S America"/>
  <path style="fill: none; stroke: rgb(103, 124, 160); stroke-width: 2px; transform-origin: 1649.03px 654.603px;" d="M 1647.316 656.188 L 1648.152 652.642 L 1650.746 656.563 L 1647.316 656.188 Z" shadow="S America"/>
  <path style="fill: none; stroke: rgb(103, 124, 160); stroke-width: 2px; transform-origin: 1657.01px 666.106px;" d="M 1654.743 667.408 L 1658.24 664.482 L 1659.275 667.73 L 1654.743 667.408 Z" shadow="S America"/>
  <path style="fill: none; stroke: rgb(103, 124, 160); stroke-width: 2px; transform-origin: 1664.75px 663.804px;" d="M 1662.273 664.411 L 1662.808 662.341 L 1665.342 661.377 L 1667.234 662.804 L 1664.093 666.231 L 1662.273 664.411 Z" shadow="S America"/>
  <path style="fill: none; stroke: rgb(103, 124, 160); stroke-width: 2px; transform-origin: 1660.15px 658.147px;" d="M 1662.88 658.201 L 1657.419 656.452 L 1658.454 659.842 L 1662.88 658.201 Z" shadow="S America"/>
  <path style="fill: none; stroke: rgb(103, 124, 160); stroke-width: 2px; transform-origin: 1663.58px 652.455px;" d="M 1660.988 652.49 L 1663.415 654.168 L 1666.163 650.741 L 1660.988 652.49 Z" shadow="S America"/>
  <path style="fill: none; stroke: rgb(103, 124, 160); stroke-width: 2px; transform-origin: 1666.36px 669.05px;" d="M 1667.485 667.587 L 1667.878 670.514 L 1664.844 670.621 L 1664.88 667.48 L 1667.485 667.587 Z" shadow="S America"/>
  <path style="fill: none; stroke: rgb(103, 124, 160); stroke-width: 2px; transform-origin: 1667.68px 673.868px;" d="M 1666.022 671.942 L 1669.484 671.834 L 1669.591 674.511 L 1667.985 675.903 L 1665.772 675.582 L 1666.022 671.942 Z" shadow="S America"/>
  <path style="fill: none; stroke: rgb(103, 124, 160); stroke-width: 2px; transform-origin: 1668.26px 679.151px;" d="M 1666.7 678.937 L 1667.842 681.114 L 1669.769 679.686 C 1669.769 679.686 1670.019 677.759 1669.484 677.509 C 1668.949 677.259 1667.949 677.188 1667.949 677.188 L 1666.7 678.937 Z" shadow="S America"/>
  <path style="fill: none; stroke: rgb(103, 124, 160); stroke-width: 2px; transform-origin: 1667.36px 684.04px;" d="M 1665.665 682.613 L 1669.055 682.613 L 1668.199 685.468 L 1665.772 685.218 L 1665.665 682.613 Z" shadow="S America"/>
  <path style="fill: none; stroke: rgb(103, 124, 160); stroke-width: 2px; transform-origin: 1676.03px 684.397px;" d="M 1675.123 682.327 L 1677.835 683.041 L 1678.192 685.396 L 1675.586 686.467 L 1673.873 685.504 L 1675.123 682.327 Z" shadow="S America"/>
  <path style="fill: none; stroke: rgb(103, 124, 160); stroke-width: 2px; transform-origin: 1664.65px 691.542px;" d="M 1663.095 689.275 L 1666.2 690.346 L 1665.665 693.808 L 1663.559 692.63 L 1663.095 689.275 Z" shadow="S America"/>
  <path style="fill: none; stroke: rgb(103, 124, 160); stroke-width: 2px; transform-origin: 1670.93px 701.285px;" d="M 1668.877 698.412 C 1668.877 698.412 1672.981 701.124 1672.981 701.16 C 1672.981 701.196 1672.589 704.158 1672.589 704.158 L 1671.018 704.122 L 1668.877 698.412 Z" shadow="S America"/>
  <path style="fill: none; stroke: rgb(103, 124, 160); stroke-width: 2px; transform-origin: 1667.47px 702.82px;" d="M 1664.915 700.196 L 1664.701 703.551 C 1664.701 703.551 1667.057 705.407 1667.092 705.478 C 1667.127 705.549 1670.233 703.444 1670.233 703.444 L 1668.734 700.16 L 1664.915 700.196 Z" shadow="S America"/>
  <path style="fill: none; stroke: rgb(103, 124, 160); stroke-width: 2px; transform-origin: 1629.14px 689.418px;" d="M 1627.798 689.454 L 1629.654 686.741 L 1630.475 691.131 L 1628.334 692.095 L 1627.798 689.454 Z" shadow="S America"/>
  <path style="fill: none; stroke: rgb(103, 124, 160); stroke-width: 2px; transform-origin: 1621.64px 687.062px;" d="M 1618.947 686.456 L 1624.336 685.742 L 1621.731 688.383 L 1618.947 686.456 Z" shadow="S America"/>
  <path style="fill: none; stroke: rgb(103, 124, 160); stroke-width: 2px; transform-origin: 1676.39px 1108.4px;" d="M 1665.993 1108.218 L 1670.063 1106.75 L 1670.424 1104.072 L 1675.446 1102.629 C 1675.446 1102.629 1678.537 1105.54 1678.563 1105.54 C 1678.589 1105.54 1681.396 1102.603 1681.396 1102.603 L 1686.419 1104.664 L 1686.78 1107.626 L 1684.358 1110.846 L 1680.289 1111.541 L 1678.125 1109.609 L 1678.383 1113.731 L 1674.725 1114.194 L 1674.21 1111.464 C 1674.21 1111.464 1669.033 1114.194 1669.084 1114.194 C 1669.135 1114.194 1667.281 1113.009 1667.281 1113.009 C 1667.281 1113.009 1665.942 1108.296 1665.993 1108.218 Z" shadow="S America"/>
  <path style="fill: none; stroke: rgb(103, 124, 160); stroke-width: 2px; transform-origin: 1504.58px 772.74px;" d="M 1500.775 767.149 L 1502.515 768.737 L 1507.339 769.928 C 1507.339 769.928 1510.178 774.874 1510.178 774.904 C 1510.178 774.934 1506.057 775.942 1506.057 775.942 C 1506.057 775.942 1502.607 778.263 1502.546 778.324 C 1502.485 778.385 1498.973 777.988 1498.973 777.988 C 1498.973 777.988 1501.05 773.469 1501.05 773.408 C 1501.05 773.347 1499.492 770.325 1499.492 770.325 L 1500.775 767.149 Z" shadow="S America"/>
  <path style="fill: none; stroke: rgb(103, 124, 160); stroke-width: 2px; transform-origin: 1513.61px 775.529px;" d="M 1515.796 773.683 C 1515.796 773.683 1515.002 777.286 1515.002 777.347 C 1515.002 777.408 1511.735 777.347 1511.705 777.347 C 1511.675 777.347 1511.43 774.049 1511.43 774.049 L 1515.796 773.683 Z" shadow="S America"/>
  <path style="fill: none; stroke: rgb(103, 124, 160); stroke-width: 2px; transform-origin: 1506.82px 778.644px;" d="M 1508.774 777.102 L 1508.591 780.186 L 1504.866 780.186 L 1505.08 777.286 L 1508.774 777.102 Z" shadow="S America"/>
  <path style="fill: none; stroke: rgb(103, 124, 160); stroke-width: 2px; transform-origin: 1466.54px 933.863px;" d="M 1465.05 935.578 L 1469.092 932.149 L 1463.988 932.394 L 1465.05 935.578 Z" shadow="S America"/>
</svg>